<svg width="250" height="193" viewBox="0 0 250 193" fill="none" xmlns="http://www.w3.org/2000/svg">
<path d="M134.902 180.214C130.616 183.5 145.045 195.643 109.616 182.857C74.259 170.071 59.8304 125.5 52.6162 100.929C45.4019 76.3572 64.759 42.9286 77.5447 33.4286C90.3304 23.9286 113.902 20 116.545 19.6429C119.116 19.3572 122.759 17.7143 128.973 11.5C135.188 5.28573 154.83 -1.2857 168.973 1.64288C183.045 4.57145 218.116 38 241.33 85.2143C264.616 132.357 233.188 166.143 227.616 166.143C222.045 166.143 189.902 144.5 186.973 141.857C184.045 139.286 176.83 138.571 171.545 136.643C166.33 134.643 154.188 120.286 154.188 120.286C156.188 156.286 139.116 176.929 134.902 180.214V180.214Z" fill="#EAB363"/>
<path d="M121.116 184.786C113.545 184.786 93.9019 171.071 72.9733 142.214C51.9733 113.357 57.9019 73.0715 57.9019 73.0715C53.9733 134.357 125.402 181.857 125.402 181.857C125.402 181.857 128.616 184.786 121.116 184.786V184.786Z" fill="#8C5E28"/>
<path d="M171.545 136.643C166.33 134.643 154.188 120.286 154.188 120.286C154.188 120.286 148.616 61.2858 154.188 35.4286C159.759 9.50004 162.688 9.21433 166.616 17.7143C170.188 25.3572 171.33 108.143 183.688 140.071C180.188 138.786 175.33 138.071 171.545 136.643Z" fill="#E2942D"/>
<path d="M115.545 21.6429C115.545 21.6429 104.402 30.7857 102.116 31.5C99.8304 32.1429 73.9019 45.5715 66.759 59.6429C59.5447 73.7143 64.1162 52.1429 71.6162 44.5715C79.1876 37.0715 97.8304 23.5715 115.545 21.6429V21.6429Z" fill="#8C5E28"/>
<path d="M108.473 168.571C64.3304 192.5 12.0447 192.714 12.0447 192.714C17.9019 177.929 0.973297 152.857 0.973297 152.857C49.6162 158 81.6162 140.071 81.6162 140.071C82.759 141.571 108.473 168.571 108.473 168.571Z" fill="#E6E6E6"/>
<path opacity="0.1" d="M108.473 168.571C94.9733 175.857 80.759 180.929 67.4733 184.5C62.6162 167.143 51.3304 157.286 42.259 152C66.9019 148.286 81.6162 140.071 81.6162 140.071C82.759 141.571 108.473 168.571 108.473 168.571V168.571Z" fill="black"/>
<path d="M134.616 27.6429C127.688 40.8572 109.259 32.8572 113.402 32.6429C117.545 32.4286 129.973 15.3572 138.259 9.64286C146.616 3.92858 168.973 1.64286 171.473 5.21429C174.045 8.78572 166.902 9.35715 158.616 9.64286C150.259 9.85715 144.759 51.7857 144.759 51.7857C129.545 43.9286 141.545 14.4286 134.616 27.6429V27.6429Z" fill="#F4CD9A"/>
</svg>
